<?xml version="1.0" encoding="UTF-8"?>
<svg id="_图层_1" data-name="图层 1" xmlns="http://www.w3.org/2000/svg" xmlns:xlink="http://www.w3.org/1999/xlink" viewBox="0 0 44 44">
  <defs>
    <style>
      .cls-1 {
        fill: #fff;
      }

      .cls-2 {
        fill: #e3e6eb;
      }

      .cls-2, .cls-3, .cls-4, .cls-5 {
        stroke: #12b4e3;
        stroke-miterlimit: 10;
      }

      .cls-3 {
        fill: #f5dad3;
      }

      .cls-6, .cls-4 {
        fill: none;
      }

      .cls-5 {
        fill: #fff7ed;
      }

      .cls-7 {
        mask: url(#mask-1);
      }

      .cls-8 {
        mask: url(#mask);
      }
    </style>
    <mask id="mask" x="10" y="9" width="24.1" height="24.15" maskUnits="userSpaceOnUse"/>
    <mask id="mask-1" x="7.44" y="6.44" width="29.23" height="29.27" maskUnits="userSpaceOnUse"/>
  </defs>
  <rect class="cls-1" y="0" width="44" height="44" rx="6" ry="6"/>
  <g class="cls-8">
    <g class="cls-7">
      <rect class="cls-6" x="7.34" y="6.3" width="29.5" height="29.5"/>
    </g>
  </g>
  <rect class="cls-5" x="7.34" y="6.3" width="28.4" height="29.18"/>
  <path class="cls-2" d="M10.48,39.23s1.59-2.34,1.9-5.47,2.54-4.56,2.54-4.56l4.19,2.6s-.06,4.83-1.55,5.54-5.61,1.94-7.07,1.88Z"/>
  <path class="cls-5" d="M17.47,27.01s-.06,0-.09,0c-.33,.15-2.54,1.19-3.31,2.14-.83,1.03,1.23,.7,3.23,1.4,.96,.34,1.62,1.05,2.05,1.7,.27,.41,.88,.28,.99-.2l.88-4c.02-.08-.03-.16-.11-.17l-3.65-.87Z"/>
  <path class="cls-3" d="M19.72,27.69l-1.75-.92c-.79-.41-1.11-1.42-.71-2.23L27.49,3.96c.4-.81,1.38-1.14,2.18-.72l1.75,.92c.79,.41,1.11,1.42,.71,2.23l-10.23,20.58c-.4,.81-1.38,1.14-2.18,.72Z"/>
  <line class="cls-4" x1="10.48" y1="10.95" x2="20.52" y2="10.95"/>
  <line class="cls-4" x1="10.48" y1="15.47" x2="19.11" y2="15.47"/>
  <line class="cls-4" x1="10.48" y1="20.19" x2="15.5" y2="20.19"/>
  <line class="cls-4" x1="23.34" y1="31.68" x2="32.3" y2="31.68"/>
  <line class="cls-4" x1="25.65" y1="27" x2="31.68" y2="27"/>
  <line class="cls-4" x1="27.82" y1="23.23" x2="32.3" y2="23.12"/>
</svg>