<?xml version="1.0" encoding="UTF-8"?>
<svg id="_图层_1" data-name="图层 1" xmlns="http://www.w3.org/2000/svg" xmlns:xlink="http://www.w3.org/1999/xlink" viewBox="0 0 44 44">
  <defs>
    <style>
      .cls-1 {
        fill: #fff;
      }

      .cls-2 {
        fill: #c8d4ea;
      }

      .cls-2, .cls-3, .cls-4 {
        stroke: #12b4e3;
        stroke-miterlimit: 10;
      }

      .cls-3 {
        fill: #fff6d7;
      }

      .cls-5 {
        fill: none;
      }

      .cls-4 {
        fill: #d7e8f9;
      }

      .cls-6 {
        mask: url(#mask-1);
      }

      .cls-7 {
        mask: url(#mask);
      }
    </style>
    <mask id="mask" x="10" y="9" width="24.1" height="24.15" maskUnits="userSpaceOnUse"/>
    <mask id="mask-1" x="7.44" y="6.44" width="29.23" height="29.27" maskUnits="userSpaceOnUse"/>
  </defs>
  <rect class="cls-1" y="0" width="44" height="44" rx="6" ry="6"/>
  <g class="cls-7">
    <g class="cls-6">
      <rect class="cls-5" x="7.34" y="6.3" width="29.5" height="29.5"/>
    </g>
  </g>
  <path class="cls-2" d="M35.88,26.86c-1.08,0-2.06,.29-2.87,.78,.09-.33,.15-.67,.15-1.03,0-2.52-2.47-4.56-5.51-4.56s-5.51,2.04-5.51,4.56c0,.11,.03,.22,.04,.33-.22-.03-.44-.06-.68-.06-2.69,0-4.87,1.81-4.87,4.03s2.18,4.03,4.87,4.03c1.47,0,2.77-.55,3.67-1.4,1.16,1.12,3,1.69,4.85,1.32,.93-.18,1.73-.58,2.36-1.11,.89,.75,2.13,1.22,3.5,1.22,2.71,0,4.91-1.82,4.91-4.06s-2.2-4.06-4.91-4.06Z"/>
  <path class="cls-3" d="M28.78,8.72c.63,.24-.38-1.16-.82-1.66-1.55-1.75-4.12-2.24-5.51-2.39-2.86-.3-7.17,.15-10.08,3.89-1.77,2.27-3.26,3.68-3.21,10.05s3.88,9.76,4.98,10.52,3.99,2.31,8.66,2.43,7.43-3.89,7.43-3.89c.28-.3-4.37,.64-7.17,0-3.46-.79-7.4-2.96-7.49-7.34s-.23-5.03,2.1-8.53c2.2-3.31,4.43-3.62,7.22-3.68,.6-.01,3.34,.39,3.89,.6Z"/>
  <path class="cls-4" d="M19.27,29.37c-.89,0-1.7,.29-2.37,.78,.08-.33,.13-.67,.13-1.03,0-2.52-2.04-4.56-4.55-4.56s-4.55,2.04-4.55,4.56c0,.11,.03,.22,.03,.33-.18-.03-.37-.06-.56-.06-2.22,0-4.02,1.81-4.02,4.03s1.8,4.03,4.02,4.03c1.21,0,2.29-.55,3.03-1.4,.96,1.12,2.47,1.69,4,1.32,.77-.18,1.43-.58,1.95-1.11,.74,.75,1.76,1.22,2.89,1.22,2.24,0,4.05-1.82,4.05-4.06s-1.81-4.06-4.05-4.06Z"/>
</svg>