<?xml version="1.0" encoding="UTF-8"?>
<svg id="_图层_1" data-name="图层 1" xmlns="http://www.w3.org/2000/svg" xmlns:xlink="http://www.w3.org/1999/xlink" viewBox="0 0 44 44">
  <defs>
    <style>
      .cls-1 {
        fill: #fff;
      }

      .cls-2 {
        fill: #eadbd6;
      }

      .cls-2, .cls-3, .cls-4 {
        stroke: #12b4e3;
        stroke-miterlimit: 10;
      }

      .cls-5, .cls-3 {
        fill: none;
      }

      .cls-6 {
        mask: url(#mask-1);
      }

      .cls-7 {
        mask: url(#mask);
      }

      .cls-4 {
        fill: #eac1b7;
      }
    </style>
    <mask id="mask" x="10" y="9" width="24.1" height="24.15" maskUnits="userSpaceOnUse"/>
    <mask id="mask-1" x="7.44" y="6.44" width="29.23" height="29.27" maskUnits="userSpaceOnUse"/>
  </defs>
  <rect class="cls-1" y="0" width="44" height="44" rx="6" ry="6"/>
  <g class="cls-7">
    <g class="cls-6">
      <rect class="cls-5" x="7.34" y="6.3" width="29.5" height="29.5"/>
    </g>
  </g>
  <path class="cls-2" d="M22.72,19.64c-6.83-.07-10.97,5.06-10.97,5.06l-6.6-7.58S10.92,6.44,22.81,6.3"/>
  <path class="cls-2" d="M22.3,19.64c6.83-.07,10.97,5.06,10.97,5.06l6.6-7.58s-5.76-10.67-17.66-10.81"/>
  <line class="cls-3" x1="12.74" y1="25.4" x2="18.84" y2="30.1"/>
  <line class="cls-3" x1="18.72" y1="22.06" x2="21.58" y2="29.99"/>
  <line class="cls-3" x1="31.65" y1="25.35" x2="25.55" y2="30.05"/>
  <line class="cls-3" x1="25.68" y1="22" x2="22.81" y2="29.93"/>
  <path class="cls-4" d="M22.28,31.29c-.15-.1-.34-.08-.48,.04-2.03,1.89-4.28,2.83-4.39,2.94s2.36,1.53,4.62,1.53c1.58,0,3.39-.64,4.32-1.02,.28-.12,.32-.5,.07-.67l-4.14-2.82Z"/>
</svg>