<?xml version="1.0" encoding="UTF-8"?>
<svg id="_图层_1" data-name="图层 1" xmlns="http://www.w3.org/2000/svg" xmlns:xlink="http://www.w3.org/1999/xlink" viewBox="0 0 44 44">
  <defs>
    <style>
      .cls-1 {
        fill: #fff;
      }

      .cls-2 {
        fill: #f0e6dd;
      }

      .cls-2, .cls-3, .cls-4 {
        stroke: #12b4e3;
        stroke-miterlimit: 10;
      }

      .cls-3 {
        fill: #d8dde5;
      }

      .cls-5 {
        fill: #bfcddd;
      }

      .cls-6, .cls-4 {
        fill: none;
      }

      .cls-7 {
        mask: url(#mask-1);
      }

      .cls-8 {
        mask: url(#mask);
      }
    </style>
    <mask id="mask" x="10" y="9" width="24.1" height="24.15" maskUnits="userSpaceOnUse"/>
    <mask id="mask-1" x="7.44" y="6.44" width="29.23" height="29.27" maskUnits="userSpaceOnUse"/>
  </defs>
  <rect class="cls-1" y="0" width="44" height="44" rx="6" ry="6"/>
  <g class="cls-8">
    <g class="cls-7">
      <rect class="cls-6" x="7.34" y="6.3" width="29.5" height="29.5"/>
    </g>
  </g>
  <ellipse class="cls-3" cx="28.42" cy="28.78" rx="6.76" ry="6.5"/>
  <path class="cls-3" d="M30.8,5.77c-13.8,5.6-18.79,8.91-21.84,10.95-3.48,2.33-5.29,5.51-4.02,9.23,.84,2.46,1.47,3.08,3.43,4.17,1.98,1.11,3.92,.7,3.92,.7,0,0,1.83-5.7,6.64-5.38,4.81,.32,5.42,4.7,5.42,4.7l14.59-16.5"/>
  <path class="cls-5" d="M18.32,25.11c14.32-12.29,14.71-12.83,14.71-12.83,0,0,3.16,2.25,5.3,1.03s-14.59,16.5-14.59,16.5l-5.42-4.7Z"/>
  <path class="cls-2" d="M32,11.38c-1.59-1.64-2.6-4.67-1.2-5.61s4.68,.55,6.27,2.2,3.28,4.72,1.88,5.67-5.36-.61-6.95-2.26Z"/>
  <circle class="cls-3" cx="17.56" cy="32.06" r="6.71"/>
  <line class="cls-4" x1="17.56" y1="32.06" x2="17.56" y2="28.3"/>
  <line class="cls-4" x1="21.34" y1="30.89" x2="17.56" y2="32.06"/>
  <line class="cls-4" x1="13.14" y1="30.89" x2="18.21" y2="32.06"/>
  <line class="cls-4" x1="15.68" y1="35.8" x2="17.56" y2="31.47"/>
  <line class="cls-4" x1="20.07" y1="35.68" x2="17.56" y2="31.47"/>
  <line class="cls-4" x1="29.03" y1="28.78" x2="28.42" y2="25.53"/>
  <line class="cls-4" x1="32.92" y1="28.3" x2="28.73" y2="28.3"/>
  <line class="cls-4" x1="30.82" y1="32.89" x2="28.73" y2="28.3"/>
  <line class="cls-4" x1="26.15" y1="32.06" x2="28.73" y2="28.3"/>
</svg>