<?xml version="1.0" encoding="UTF-8"?>
<svg id="_图层_1" data-name="图层 1" xmlns="http://www.w3.org/2000/svg" xmlns:xlink="http://www.w3.org/1999/xlink" viewBox="0 0 44 44">
  <defs>
    <style>
      .cls-1 {
        fill: #fff;
      }

      .cls-2 {
        fill: #f5dad3;
      }

      .cls-2, .cls-3 {
        stroke: #12b4e3;
        stroke-miterlimit: 10;
      }

      .cls-4, .cls-3 {
        fill: none;
      }

      .cls-5 {
        mask: url(#mask-1);
      }

      .cls-6 {
        mask: url(#mask);
      }
    </style>
    <mask id="mask" x="10" y="9" width="24.1" height="24.15" maskUnits="userSpaceOnUse"/>
    <mask id="mask-1" x="7.44" y="6.44" width="29.23" height="29.27" maskUnits="userSpaceOnUse"/>
  </defs>
  <rect class="cls-1" y="0" width="44" height="44" rx="6" ry="6"/>
  <g class="cls-6">
    <g class="cls-5">
      <rect class="cls-4" x="7.34" y="6.3" width="29.5" height="29.5"/>
    </g>
  </g>
  <path class="cls-2" d="M35.73,15.07l4.85-.53-3.38,2.87,2.14,3.04-3.61-.71s-1.13,7.23-2.7,9.35-8.51,6.54-12.96,7.02-6.42,4.46-6.42,4.46l-4.51-2.13,4.85-4.78-8.11-4.15,11.72-2.76-9.58-7.12,2.25-3.93-.9-6.8h2.7l-1.46-5.85,16.68,14.77s2.37-6.32,5.07-6.38,3.38,3.61,3.38,3.61Z"/>
  <line class="cls-3" x1="24.24" y1="21.05" x2="12.07" y2="8.91"/>
  <line class="cls-3" x1="21.42" y1="24.47" x2="10.27" y2="15.71"/>
  <circle class="cls-2" cx="32.46" cy="14.55" r=".68"/>
</svg>