<?xml version="1.0" encoding="UTF-8"?>
<svg id="_图层_1" data-name="图层 1" xmlns="http://www.w3.org/2000/svg" xmlns:xlink="http://www.w3.org/1999/xlink" viewBox="0 0 44 44">
  <defs>
    <style>
      .cls-1 {
        fill: #fff;
      }

      .cls-2, .cls-3 {
        fill: #d0c5c3;
      }

      .cls-2, .cls-3, .cls-4, .cls-5 {
        stroke: #12b4e3;
      }

      .cls-2, .cls-5 {
        stroke-miterlimit: 10;
      }

      .cls-3, .cls-4 {
        stroke-linejoin: round;
      }

      .cls-6, .cls-4 {
        fill: none;
      }

      .cls-4 {
        stroke-linecap: round;
      }

      .cls-5 {
        fill: #fff7ed;
      }

      .cls-7 {
        mask: url(#mask-1);
      }

      .cls-8 {
        mask: url(#mask);
      }
    </style>
    <mask id="mask" x="10" y="9" width="24.1" height="24.15" maskUnits="userSpaceOnUse"/>
    <mask id="mask-1" x="7.44" y="6.44" width="29.23" height="29.27" maskUnits="userSpaceOnUse"/>
  </defs>
  <rect class="cls-1" y="0" width="44" height="44" rx="6" ry="6"/>
  <g class="cls-8">
    <g class="cls-7">
      <rect class="cls-6" x="7.34" y="6.3" width="29.5" height="29.5"/>
    </g>
  </g>
  <polygon class="cls-2" points="5.96 24.54 6.37 32.91 30.01 35.8 30.01 27.49 5.96 24.54"/>
  <path class="cls-3" d="M37.02,8.31c-6.33,16.17-7.01,19.18-7.01,19.18v8.31l7.22-18.9-.21-8.59Z"/>
  <path class="cls-5" d="M5.96,24.54c1.59-3.18,8.74-17.48,8.74-17.48l22.32,1.25-7.01,19.18-24.05-2.95Z"/>
  <path class="cls-4" d="M9.3,22.33c1.24-2.38,6.86-13.08,6.86-13.08l17.52,.94-5.5,14.35-18.87-2.21Z"/>
  <line class="cls-4" x1="21.32" y1="9.53" x2="14.42" y2="22.93"/>
  <line class="cls-4" x1="27.5" y1="9.86" x2="21.49" y2="23.34"/>
  <line class="cls-4" x1="14.04" y1="13.29" x2="32.2" y2="14.04"/>
  <line class="cls-4" x1="11.6" y1="17.94" x2="30.01" y2="19.77"/>
</svg>